<svg xmlns="http://www.w3.org/2000/svg" viewBox="0 0 32 32">
  <defs>
    <linearGradient id="g" x1="0%" y1="0%" x2="100%" y2="100%">
      <stop offset="0%" stop-color="#a78bfa"/>
      <stop offset="100%" stop-color="#7c3aed"/>
    </linearGradient>
  </defs>
  <rect width="32" height="32" fill="white" rx="6"/>
  <!-- Top-left finder -->
  <rect x="4" y="4" width="10" height="10" rx="2" fill="url(#g)"/>
  <rect x="6" y="6" width="6" height="6" rx="1" fill="white"/>
  <rect x="8" y="8" width="2" height="2" fill="url(#g)"/>
  <!-- Top-right finder -->
  <rect x="18" y="4" width="10" height="10" rx="2" fill="url(#g)"/>
  <rect x="20" y="6" width="6" height="6" rx="1" fill="white"/>
  <rect x="22" y="8" width="2" height="2" fill="url(#g)"/>
  <!-- Bottom-left finder -->
  <rect x="4" y="18" width="10" height="10" rx="2" fill="url(#g)"/>
  <rect x="6" y="20" width="6" height="6" rx="1" fill="white"/>
  <rect x="8" y="22" width="2" height="2" fill="url(#g)"/>
  <!-- Bottom-right abstract data -->
  <rect x="18" y="18" width="4" height="4" rx="1" fill="url(#g)"/>
  <rect x="24" y="18" width="4" height="4" rx="1" fill="url(#g)"/>
  <rect x="18" y="24" width="4" height="4" rx="1" fill="url(#g)"/>
  <rect x="24" y="24" width="4" height="4" rx="1" fill="url(#g)"/>
</svg>
