<svg xmlns="http://www.w3.org/2000/svg" viewBox="0 0 32 32">
  <defs>
    <linearGradient id="g" x1="0%" y1="0%" x2="100%" y2="100%">
      <stop offset="0%" stop-color="#a78bfa"/>
      <stop offset="100%" stop-color="#7c3aed"/>
    </linearGradient>
  </defs>
  <rect width="32" height="32" fill="white" rx="4"/>
  <!-- Top-left finder -->
  <rect x="3" y="3" width="9" height="9" fill="url(#g)"/>
  <rect x="5" y="5" width="5" height="5" fill="white"/>
  <rect x="6" y="6" width="3" height="3" fill="url(#g)"/>
  <!-- Top-right finder -->
  <rect x="20" y="3" width="9" height="9" fill="url(#g)"/>
  <rect x="22" y="5" width="5" height="5" fill="white"/>
  <rect x="23" y="6" width="3" height="3" fill="url(#g)"/>
  <!-- Bottom-left finder -->
  <rect x="3" y="20" width="9" height="9" fill="url(#g)"/>
  <rect x="5" y="22" width="5" height="5" fill="white"/>
  <rect x="6" y="23" width="3" height="3" fill="url(#g)"/>
  <!-- Data modules -->
  <rect x="14" y="3" width="2" height="2" fill="url(#g)"/>
  <rect x="14" y="7" width="2" height="2" fill="url(#g)"/>
  <rect x="16" y="5" width="2" height="2" fill="url(#g)"/>
  <rect x="3" y="14" width="2" height="2" fill="url(#g)"/>
  <rect x="7" y="14" width="2" height="2" fill="url(#g)"/>
  <rect x="14" y="14" width="4" height="4" fill="url(#g)"/>
  <rect x="20" y="14" width="2" height="2" fill="url(#g)"/>
  <rect x="24" y="14" width="2" height="2" fill="url(#g)"/>
  <rect x="14" y="20" width="2" height="2" fill="url(#g)"/>
  <rect x="14" y="24" width="2" height="2" fill="url(#g)"/>
  <rect x="20" y="20" width="3" height="3" fill="url(#g)"/>
  <rect x="25" y="20" width="2" height="2" fill="url(#g)"/>
  <rect x="20" y="25" width="2" height="2" fill="url(#g)"/>
  <rect x="25" y="25" width="4" height="4" fill="url(#g)"/>
</svg>
